<svg width="435" height="481" viewBox="0 0 435 481" fill="none" xmlns="http://www.w3.org/2000/svg">
<path fill-rule="evenodd" clip-rule="evenodd" d="M49.4336 468.667H315.042V469.9H49.4336V468.667Z" fill="#3FB1B5"/>
<path fill-rule="evenodd" clip-rule="evenodd" d="M296.443 481H4.08301V480.046H296.443V481Z" fill="#66B0F0"/>
<path d="M295.153 4.9209V52.7702C295.153 62.1411 287.508 69.7535 278.097 69.7535H224.816C234.227 69.7535 241.872 62.1643 241.872 52.7702V4.9209H295.153Z" fill="white"/>
<path fill-rule="evenodd" clip-rule="evenodd" d="M241.291 4.34277H295.733V52.7706C295.733 62.4609 287.829 70.3323 278.097 70.3323H224.816V69.1754C233.907 69.1754 241.291 61.8446 241.291 52.7706V4.34277ZM231.126 69.1754H278.097C287.187 69.1754 294.572 61.822 294.572 52.7706V5.49967H242.453V52.7706C242.453 60.2659 237.746 66.6501 231.126 69.1754Z" fill="#66B0F0"/>
<path d="M270.545 0.293945H266.246V10.4978H270.545V0.293945Z" fill="#FFCF2D"/>
<path d="M279.654 23.1086C279.05 23.1086 278.446 22.8773 277.958 22.4376L276.169 20.8643C275.611 20.3784 274.867 20.3784 274.31 20.8643L272.614 22.3682C271.614 23.2475 270.22 23.2475 269.198 22.3682L267.641 21.0031C267.083 20.5172 266.34 20.5172 265.782 21.0031L264.341 22.2757C263.342 23.1549 261.948 23.1549 260.926 22.2757L259.741 21.2345C259.183 20.7486 258.439 20.7486 257.882 21.2345L256.604 22.3682C255.605 23.2475 254.21 23.2475 253.188 22.3682L252.003 21.327C251.445 20.8411 250.702 20.8411 250.144 21.327C249.912 21.5353 249.54 21.5121 249.331 21.2807C249.122 21.0494 249.145 20.6791 249.377 20.4709C250.376 19.5917 251.771 19.5917 252.793 20.4709L253.978 21.5121C254.536 21.998 255.279 21.998 255.837 21.5121L257.115 20.3784C258.114 19.4991 259.508 19.4991 260.531 20.3784L261.716 21.4196C262.273 21.9055 263.017 21.9055 263.575 21.4196L265.015 20.147C266.014 19.2677 267.409 19.2677 268.431 20.147L269.988 21.5121C270.546 21.998 271.289 21.998 271.847 21.5121L273.543 20.0081C274.542 19.1289 275.936 19.1289 276.959 20.0081L278.748 21.5815C279.306 22.0674 280.049 22.0674 280.607 21.5815L282.466 19.9387C283.465 19.0595 284.859 19.0595 285.881 19.9387C286.114 20.147 286.137 20.5172 285.928 20.7486C285.719 20.9799 285.347 21.0031 285.115 20.7948C284.557 20.3089 283.813 20.3089 283.256 20.7948L281.397 22.4376C280.839 22.8773 280.258 23.1086 279.654 23.1086Z" fill="#66B0F0"/>
<path d="M279.654 32.6174C279.05 32.6174 278.446 32.386 277.958 31.9464L276.169 30.373C275.611 29.8871 274.867 29.8871 274.31 30.373L272.614 31.877C271.614 32.7562 270.22 32.7562 269.198 31.877L267.641 30.5119C267.083 30.026 266.34 30.026 265.782 30.5119L264.341 31.7844C263.342 32.6637 261.948 32.6637 260.926 31.7844L259.741 30.7432C259.183 30.2573 258.439 30.2573 257.882 30.7432L256.604 31.877C255.605 32.7562 254.21 32.7562 253.188 31.877L252.003 30.8358C251.445 30.3499 250.702 30.3499 250.144 30.8358C249.912 31.044 249.54 31.0209 249.331 30.7895C249.122 30.5581 249.145 30.1879 249.377 29.9797C250.376 29.1004 251.771 29.1004 252.793 29.9797L253.978 31.0209C254.536 31.5068 255.279 31.5068 255.837 31.0209L257.115 29.8871C258.114 29.0079 259.508 29.0079 260.531 29.8871L261.716 30.9283C262.273 31.4142 263.017 31.4142 263.575 30.9283L265.015 29.6558C266.014 28.7765 267.409 28.7765 268.431 29.6558L269.988 31.0209C270.546 31.5068 271.289 31.5068 271.847 31.0209L273.543 29.5169C274.542 28.6377 275.936 28.6377 276.959 29.5169L278.748 31.0903C279.306 31.5762 280.049 31.5762 280.607 31.0903L282.466 29.4475C283.465 28.5683 284.859 28.5683 285.881 29.4475C286.114 29.6558 286.137 30.026 285.928 30.2573C285.719 30.4887 285.347 30.5119 285.115 30.3036C284.557 29.8177 283.813 29.8177 283.256 30.3036L281.397 31.9464C280.839 32.4091 280.258 32.6174 279.654 32.6174Z" fill="#66B0F0"/>
<path d="M279.654 42.1272C279.05 42.1272 278.446 41.8958 277.958 41.4562L276.169 39.8828C275.611 39.3969 274.867 39.3969 274.31 39.8828L272.614 41.3868C271.614 42.266 270.22 42.266 269.198 41.3868L267.641 40.0216C267.083 39.5357 266.34 39.5357 265.782 40.0216L264.341 41.2942C263.342 42.1734 261.948 42.1734 260.926 41.2942L259.741 40.253C259.183 39.7671 258.439 39.7671 257.882 40.253L256.604 41.3868C255.605 42.266 254.21 42.266 253.188 41.3868L252.003 40.3456C251.445 39.8597 250.702 39.8597 250.144 40.3456C249.912 40.5538 249.54 40.5307 249.331 40.2993C249.122 40.0679 249.145 39.6977 249.377 39.4895C250.376 38.6102 251.771 38.6102 252.793 39.4895L253.978 40.5307C254.536 41.0166 255.279 41.0166 255.837 40.5307L257.115 39.3969C258.114 38.5177 259.508 38.5177 260.531 39.3969L261.716 40.4381C262.273 40.924 263.017 40.924 263.575 40.4381L265.015 39.1655C266.014 38.2863 267.409 38.2863 268.431 39.1655L269.988 40.5307C270.546 41.0166 271.289 41.0166 271.847 40.5307L273.543 39.0267C274.542 38.1475 275.936 38.1475 276.959 39.0267L278.748 40.6001C279.306 41.086 280.049 41.086 280.607 40.6001L282.466 38.9573C283.465 38.078 284.859 38.078 285.881 38.9573C286.114 39.1655 286.137 39.5357 285.928 39.7671C285.719 39.9985 285.347 40.0216 285.115 39.8134C284.557 39.3275 283.813 39.3275 283.256 39.8134L281.397 41.4562C280.839 41.9189 280.258 42.1272 279.654 42.1272Z" fill="#66B0F0"/>
<path d="M279.654 51.6594C279.05 51.6594 278.446 51.428 277.958 50.9884L276.169 49.415C275.611 48.9291 274.867 48.9291 274.31 49.415L272.614 50.919C271.614 51.7982 270.22 51.7982 269.198 50.919L267.641 49.5539C267.083 49.068 266.34 49.068 265.782 49.5539L264.341 50.8264C263.342 51.7057 261.948 51.7057 260.926 50.8264L259.741 49.7852C259.183 49.2993 258.439 49.2993 257.882 49.7852L256.604 50.919C255.605 51.7982 254.21 51.7982 253.188 50.919L252.003 49.8778C251.445 49.3919 250.702 49.3919 250.144 49.8778C249.912 50.086 249.54 50.0629 249.331 49.8315C249.122 49.6001 249.145 49.2299 249.377 49.0217C250.376 48.1425 251.771 48.1425 252.793 49.0217L253.978 50.0629C254.536 50.5488 255.279 50.5488 255.837 50.0629L257.115 48.9291C258.114 48.0499 259.508 48.0499 260.531 48.9291L261.716 49.9703C262.273 50.4562 263.017 50.4562 263.575 49.9703L265.015 48.6978C266.014 47.8185 267.409 47.8185 268.431 48.6978L269.988 50.0629C270.546 50.5488 271.289 50.5488 271.847 50.0629L273.543 48.5589C274.542 47.6797 275.936 47.6797 276.959 48.5589L278.748 50.1323C279.306 50.6182 280.049 50.6182 280.607 50.1323L282.466 48.4895C283.465 47.6103 284.859 47.6103 285.881 48.4895C286.114 48.6978 286.137 49.068 285.928 49.2993C285.719 49.5307 285.347 49.5539 285.115 49.3456C284.557 48.8597 283.813 48.8597 283.256 49.3456L281.397 50.9884C280.839 51.428 280.258 51.6594 279.654 51.6594Z" fill="#66B0F0"/>
<path d="M350.011 4.91992H312.74V42.0333H350.011V4.91992Z" fill="#FFCF2D"/>
<path d="M320.931 3.33727L318.232 0.00488281L308.391 7.94256L311.09 11.2749L320.931 3.33727Z" fill="#FE5244"/>
<path d="M351.945 11.2562L354.647 7.92676L344.798 -2.5395e-05L342.095 3.32937L351.945 11.2562Z" fill="#FE5244"/>
<path d="M342.135 13.7139H319.526V15.1022H342.135V13.7139Z" fill="white"/>
<path d="M342.135 19.7061H319.526V21.0943H342.135V19.7061Z" fill="white"/>
<path d="M342.135 25.7217H319.526V27.1099H342.135V25.7217Z" fill="white"/>
<path d="M342.135 31.7148H319.526V33.1031H342.135V31.7148Z" fill="white"/>
<path d="M378.457 403.178C377.917 403.019 377.618 402.939 377.618 402.939L371.085 424.243L346.494 417.818C346.295 417.639 346.195 417.54 346.195 417.54C346.195 417.54 246.612 339.822 241.378 302.524C236.164 265.227 277.875 229.839 277.875 229.839C277.875 229.839 366.83 397.27 377.837 402.74C378.057 402.86 378.277 402.999 378.457 403.178Z" fill="#E57281"/>
<path d="M298.931 269.006C295.814 285.616 284.867 319.253 273.541 351.797C256.76 333.794 243.216 315.633 241.378 302.504C238.062 278.872 253.624 255.977 265.45 242.41C269.785 238.949 274.459 235.766 279.513 232.922C282.61 238.71 289.781 252.118 298.931 269.006Z" fill="#9A3B82"/>
<path d="M434.352 417.52L397.775 440.893L387.167 439.302L377.399 445.468L380.555 451.913L364.474 462.197C343.159 442.882 346.175 417.759 346.175 417.759L371.066 424.263L377.598 402.959C377.598 402.959 399.952 409.464 416.453 408.907C432.993 408.35 434.352 417.52 434.352 417.52Z" fill="white"/>
<path fill-rule="evenodd" clip-rule="evenodd" d="M377.198 402.222L377.766 402.387L377.598 402.96C377.766 402.387 377.766 402.387 377.766 402.387L377.781 402.391L377.829 402.405C377.871 402.417 377.934 402.435 378.017 402.459C378.183 402.506 378.43 402.575 378.75 402.663C379.39 402.839 380.324 403.09 381.497 403.389C383.843 403.989 387.143 404.782 390.957 405.558C398.595 407.112 408.253 408.587 416.432 408.311C424.817 408.029 429.46 410.212 432.012 412.568C433.282 413.741 434.013 414.938 434.427 415.851C434.633 416.307 434.761 416.693 434.838 416.969C434.876 417.107 434.902 417.217 434.919 417.297C434.927 417.336 434.933 417.368 434.937 417.391C434.939 417.402 434.941 417.412 434.942 417.419L434.943 417.428L434.944 417.431L434.944 417.433C434.944 417.433 434.944 417.434 434.351 417.521L434.944 417.434L435 417.815L397.908 441.517L387.299 439.926L378.172 445.687L381.327 452.129L364.41 462.948L364.07 462.64C353.3 452.881 348.676 441.65 346.745 432.863C345.781 428.471 345.488 424.687 345.437 421.998C345.412 420.653 345.447 419.582 345.488 418.843C345.509 418.474 345.532 418.188 345.549 417.993C345.558 417.896 345.565 417.821 345.571 417.77C345.573 417.744 345.576 417.725 345.577 417.711L345.579 417.695L345.579 417.691L345.58 417.689C345.58 417.689 345.58 417.689 346.175 417.759L345.58 417.689L345.661 417.008L370.661 423.541L377.198 402.222ZM346.71 418.516C346.702 418.633 346.693 418.765 346.685 418.91C346.645 419.621 346.611 420.663 346.636 421.976C346.685 424.601 346.971 428.305 347.916 432.608C349.786 441.119 354.234 451.964 364.538 461.448L379.782 451.699L376.624 445.251L387.035 438.679L397.64 440.27L433.671 417.246C433.608 417.025 433.503 416.713 433.334 416.342C432.977 415.553 432.334 414.493 431.197 413.443C428.934 411.353 424.628 409.229 416.472 409.504C408.15 409.785 398.381 408.286 390.717 406.727C386.88 405.947 383.56 405.149 381.2 404.546C380.019 404.244 379.078 403.991 378.431 403.814C378.268 403.769 378.124 403.729 377.999 403.694L371.471 424.987L346.71 418.516Z" fill="#FE5244"/>
<path fill-rule="evenodd" clip-rule="evenodd" d="M393.3 405.022C393.25 404.579 393.175 403.954 393.074 403.21C392.868 401.699 392.553 399.689 392.115 397.706C391.679 395.735 391.113 393.747 390.393 392.304C390.034 391.586 389.614 390.953 389.112 390.531C388.591 390.093 387.949 389.861 387.234 390.049L387.232 390.05L387.231 390.05C386.516 390.242 386.053 390.779 385.779 391.426C385.508 392.063 385.393 392.858 385.382 393.713C385.359 395.429 385.755 397.556 386.402 399.568C387.048 401.579 387.965 403.536 389.027 404.893C389.556 405.57 390.15 406.133 390.797 406.462C391.462 406.801 392.196 406.894 392.928 406.595C394.165 406.09 395.329 404.933 396.36 403.588C397.405 402.225 398.371 400.592 399.192 399.032C400.014 397.468 400.698 395.963 401.176 394.85C401.416 394.293 401.604 393.833 401.732 393.512C401.797 393.351 401.846 393.225 401.88 393.139C401.896 393.096 401.909 393.063 401.918 393.04L401.928 393.014L401.931 393.005L401.931 393.005C401.931 393.005 401.931 393.005 401.37 392.795C400.809 392.584 400.809 392.584 400.809 392.584L400.809 392.585L400.809 392.586L400.807 392.592L400.798 392.615C400.79 392.636 400.778 392.667 400.762 392.709C400.73 392.791 400.682 392.914 400.619 393.07C400.494 393.384 400.309 393.834 400.074 394.381C399.604 395.475 398.934 396.95 398.13 398.478C397.325 400.008 396.395 401.576 395.408 402.864C394.698 403.79 393.986 404.533 393.3 405.022ZM392.155 405.574C391.9 405.603 391.633 405.547 391.342 405.399C390.91 405.18 390.445 404.764 389.972 404.159C389.029 402.953 388.165 401.14 387.543 399.204C386.922 397.271 386.56 395.276 386.58 393.728C386.59 392.951 386.696 392.328 386.882 391.891C387.064 391.463 387.293 391.27 387.541 391.203C387.789 391.138 388.038 391.19 388.339 391.443C388.659 391.712 388.991 392.178 389.319 392.835C389.972 394.143 390.513 396.014 390.944 397.963C391.373 399.902 391.683 401.877 391.886 403.37C391.988 404.116 392.062 404.74 392.111 405.177C392.129 405.334 392.143 405.468 392.155 405.574Z" fill="#FE5244"/>
<path fill-rule="evenodd" clip-rule="evenodd" d="M433.15 414.843L398.34 436.485L386.787 434.634L374.662 441.85L349.98 441.47L349.999 440.276L374.34 440.652L386.547 433.387L398.086 435.236L432.515 413.831L433.15 414.843Z" fill="#FE5244"/>
<path fill-rule="evenodd" clip-rule="evenodd" d="M384.843 415.327L387.12 404.765L388.292 405.015L386.015 415.578L384.843 415.327Z" fill="#FE5244"/>
<path fill-rule="evenodd" clip-rule="evenodd" d="M389.797 416.521L392.074 405.958L393.246 406.209L390.969 416.771L389.797 416.521Z" fill="#FE5244"/>
<path fill-rule="evenodd" clip-rule="evenodd" d="M394.972 417.376L397.249 406.813L398.421 407.064L396.144 417.627L394.972 417.376Z" fill="#FE5244"/>
<path d="M269.426 221.704C269.426 221.704 284.069 228.507 284.069 253.452C284.069 277.561 228.175 425.199 228.175 425.199L210.975 439.721L193.516 420.684C202.046 412.608 177.554 266.6 269.426 221.704Z" fill="#E57281"/>
<path d="M267.868 468.007L224.4 468.047L216.329 461.005L204.763 460.945L203.924 468.067L186.884 468.087C177.614 439.363 193.596 420.664 193.596 420.664L210.935 439.681L228.255 425.18C228.255 425.18 243.277 442.724 257.461 451.119C271.684 459.533 267.868 468.007 267.868 468.007Z" fill="white"/>
<path fill-rule="evenodd" clip-rule="evenodd" d="M193.581 419.761L210.991 438.855L228.325 424.342L228.711 424.793L228.255 425.18C228.711 424.793 228.711 424.793 228.711 424.793L228.721 424.805L228.753 424.842C228.781 424.875 228.824 424.924 228.88 424.988C228.992 425.118 229.16 425.309 229.378 425.556C229.814 426.05 230.454 426.765 231.266 427.65C232.891 429.42 235.204 431.868 237.96 434.577C243.478 440.003 250.738 446.447 257.767 450.606C264.977 454.872 267.705 459.209 268.578 462.569C269.013 464.241 268.98 465.645 268.835 466.638C268.762 467.134 268.662 467.528 268.577 467.802C268.535 467.939 268.496 468.047 268.468 468.122C268.46 468.142 268.453 468.159 268.447 468.174C268.442 468.189 268.436 468.201 268.432 468.211C268.428 468.222 268.424 468.231 268.421 468.238L268.417 468.246L268.415 468.25C268.415 468.251 268.415 468.252 267.868 468.007L268.415 468.252L268.256 468.604L224.174 468.644L216.102 461.601L205.295 461.545L204.456 468.663L186.447 468.684L186.313 468.269C181.633 453.767 183.325 441.778 186.196 433.411C187.631 429.231 189.36 425.956 190.732 423.723C191.418 422.607 192.016 421.75 192.444 421.171C192.658 420.881 192.83 420.66 192.949 420.51C193.008 420.436 193.055 420.379 193.087 420.34C193.103 420.32 193.116 420.305 193.124 420.295L193.135 420.283L193.137 420.279L193.138 420.278C193.139 420.278 193.139 420.278 193.595 420.664L193.139 420.278L193.581 419.761ZM193.627 421.587C193.561 421.674 193.489 421.77 193.41 421.877C193 422.433 192.421 423.261 191.754 424.346C190.42 426.517 188.732 429.713 187.331 433.797C184.556 441.881 182.897 453.455 187.322 467.49L203.39 467.471L204.229 460.346L216.555 460.41L224.624 467.45L267.444 467.411C267.51 467.19 267.59 466.87 267.649 466.466C267.775 465.607 267.807 464.366 267.418 462.868C266.643 459.887 264.167 455.781 257.154 451.632C249.999 447.397 242.656 440.871 237.118 435.426C234.345 432.7 232.016 430.237 230.381 428.455C229.563 427.564 228.919 426.843 228.478 426.344C228.369 426.221 228.272 426.111 228.188 426.015L210.879 440.508L193.627 421.587Z" fill="#FE5244"/>
<path fill-rule="evenodd" clip-rule="evenodd" d="M248.27 419.056C249.16 418.934 250.018 419.153 250.762 419.796C251.5 420.434 251.84 421.23 251.837 422.104C251.835 422.949 251.515 423.825 251.031 424.679C250.065 426.385 248.326 428.202 246.486 429.844C244.635 431.495 242.636 433.01 241.103 434.11C240.395 434.618 239.785 435.039 239.332 435.345C239.531 435.364 239.773 435.373 240.061 435.368C240.781 435.357 241.688 435.265 242.725 435.111C244.797 434.802 247.325 434.255 249.785 433.658C252.242 433.062 254.617 432.421 256.38 431.928C257.261 431.682 257.988 431.473 258.494 431.326C258.747 431.252 258.946 431.194 259.08 431.154C259.147 431.134 259.199 431.119 259.233 431.108L259.285 431.093C259.285 431.093 259.285 431.093 259.458 431.664C259.63 432.236 259.63 432.236 259.63 432.236L259.577 432.252C259.557 432.258 259.532 432.265 259.502 432.274C259.478 432.281 259.451 432.289 259.421 432.298C259.285 432.338 259.085 432.397 258.83 432.471C258.32 432.62 257.589 432.83 256.704 433.077C254.933 433.572 252.543 434.218 250.068 434.818C247.596 435.417 245.027 435.975 242.902 436.291C241.841 436.449 240.875 436.549 240.08 436.562C239.32 436.573 238.598 436.51 238.114 436.246C237.455 435.885 237.333 435.103 237.356 434.447C237.381 433.736 237.584 432.859 237.9 431.913C238.537 430.01 239.685 427.683 241.065 425.543C242.44 423.411 244.08 421.412 245.722 420.209C246.544 419.607 247.407 419.174 248.27 419.056ZM238.557 434.427C239.009 434.122 239.65 433.682 240.402 433.142C241.917 432.055 243.879 430.568 245.686 428.955C247.504 427.332 249.121 425.622 249.987 424.092C250.421 423.328 250.637 422.659 250.639 422.101C250.64 421.573 250.451 421.108 249.976 420.697C249.505 420.29 248.997 420.161 248.433 420.238C247.844 420.319 247.168 420.631 246.433 421.17C244.961 422.248 243.415 424.108 242.073 426.188C240.736 428.261 239.637 430.499 239.038 432.29C238.748 433.156 238.586 433.886 238.557 434.427Z" fill="#FE5244"/>
<path fill-rule="evenodd" clip-rule="evenodd" d="M184.266 443.189L184.905 442.18L205.155 454.898H219.363L228.332 462.397H268.207V463.591H227.896L218.926 456.092H204.808L184.266 443.189Z" fill="#FE5244"/>
<path fill-rule="evenodd" clip-rule="evenodd" d="M226.273 438.483L233.944 430.845L234.792 431.689L227.121 439.327L226.273 438.483Z" fill="#FE5244"/>
<path fill-rule="evenodd" clip-rule="evenodd" d="M229.788 442.163L237.459 434.524L238.307 435.368L230.636 443.007L229.788 442.163Z" fill="#FE5244"/>
<path fill-rule="evenodd" clip-rule="evenodd" d="M233.665 445.664L241.336 438.025L242.184 438.869L234.513 446.508L233.665 445.664Z" fill="#FE5244"/>
<path d="M269.425 221.703C234.886 238.572 216.787 269.762 207.218 302.524H102.402C75.5731 302.524 55.5766 277.878 61.2299 251.76L68.9209 216.193H251.167C257.919 216.193 264.191 218.222 269.425 221.703Z" fill="#FE5244"/>
<path d="M191.596 255.798L229.331 255.719L223.738 264.849L191.596 255.798Z" fill="#E57281"/>
<path fill-rule="evenodd" clip-rule="evenodd" d="M108.676 215.609C109 215.677 109.208 215.993 109.14 216.315L107.682 223.277C107.682 223.277 107.682 223.277 107.682 223.277C104.244 239.716 116.825 255.142 133.684 255.142H229.005C239.061 241.273 252.185 229.361 269.36 220.969C269.657 220.824 270.016 220.946 270.162 221.242C270.308 221.538 270.185 221.895 269.888 222.04C252.806 230.387 239.775 242.254 229.798 256.087L229.619 256.336H133.684C116.064 256.336 102.915 240.213 106.509 223.034L107.967 216.072C108.035 215.749 108.352 215.542 108.676 215.609Z" fill="white"/>
<path fill-rule="evenodd" clip-rule="evenodd" d="M191.021 255.614C191.113 255.297 191.445 255.114 191.763 255.205L224.252 264.489L223.856 265.154C216.875 276.857 211.739 289.639 207.934 302.671C207.842 302.988 207.51 303.17 207.192 303.078C206.874 302.986 206.691 302.655 206.784 302.338C210.538 289.478 215.588 276.837 222.431 265.21L191.432 256.352C191.114 256.261 190.93 255.931 191.021 255.614Z" fill="white"/>
<path d="M44.4293 120.653L63.6267 195.646H27.8088C6.95327 195.646 -6.47096 173.586 3.19769 155.186L30.7054 102.81C38.4962 87.9908 53.8981 78.7012 70.6984 78.7012H77.1908C55.1367 78.6813 38.9757 99.369 44.4293 120.653Z" fill="#3FB1B5"/>
<path d="M265.489 101.198C276.776 101.198 286.165 99.7063 288.442 97.6176L253.424 173.207C247.091 186.893 233.327 195.645 218.205 195.645C213.77 195.645 209.415 194.89 205.3 193.437C201.185 191.985 197.31 189.857 193.854 187.072L171.78 169.328C171.78 169.328 169.582 182.198 153.901 185.481V216.154H68.9005L44.4292 120.633C38.9757 99.3482 55.1367 78.6406 77.1907 78.6406H136.701C141.955 78.6406 147.129 79.2971 152.123 80.5701C165.787 84.0314 178.052 92.028 186.722 103.486L215.808 141.917L241.937 96.444C241.937 96.4838 241.917 96.5434 241.917 96.5832C241.937 99.2289 252.505 101.198 265.489 101.198Z" fill="#3FB1B5"/>
<path fill-rule="evenodd" clip-rule="evenodd" d="M44.0853 120.073C44.4065 119.994 44.7315 120.189 44.811 120.509L63.609 196.099C63.6885 196.419 63.4926 196.742 63.1713 196.821C62.85 196.901 62.5251 196.706 62.4455 196.386L43.6476 120.796C43.568 120.476 43.764 120.153 44.0853 120.073Z" fill="white"/>
<path fill-rule="evenodd" clip-rule="evenodd" d="M154.869 152.204C155.11 151.978 155.489 151.99 155.716 152.23L172.416 169.934C172.643 170.174 172.631 170.552 172.39 170.778C172.148 171.003 171.769 170.991 171.543 170.751L154.842 153.047C154.616 152.807 154.627 152.429 154.869 152.204Z" fill="white"/>
<path d="M288.963 96.5032L288.444 97.6172C286.166 99.7257 276.777 101.198 265.491 101.198C252.506 101.198 241.938 99.2284 241.938 96.6226C241.938 96.5828 241.938 96.5231 241.958 96.4833C242.318 93.9371 252.746 91.749 265.511 91.749C278.256 91.749 288.604 93.9371 288.963 96.5032C288.963 96.4833 288.963 96.4833 288.963 96.5032Z" fill="#FE5244"/>
<path d="M299.429 58.3108C299.429 59.4447 299.15 60.5586 298.63 61.5333C298.111 62.5081 297.352 63.3634 296.413 64.0198L295.953 64.3381L292.378 83.335C291.798 86.4182 289.96 89.1434 287.304 90.8343L282.409 93.9374L278.534 96.404L276.736 100.681C273.4 101.019 269.584 101.218 265.509 101.218C261.394 101.218 257.519 101.019 254.143 100.661V71.2009C254.143 69.9278 254.422 68.6746 254.962 67.5208L261.474 53.5566C261.474 53.5566 268.586 55.3071 265.309 64C262.333 71.8971 269.125 69.8681 272.94 68.4557C276.356 67.1827 291.279 59.6237 297.112 56.8587C298.191 56.3415 299.429 57.1372 299.429 58.3108Z" fill="#E57281"/>
<path fill-rule="evenodd" clip-rule="evenodd" d="M293.289 75.6258C293.56 75.6763 293.738 75.9361 293.688 76.206C293.083 79.4249 291.164 82.2485 288.392 84.013L279.622 89.5831C279.389 89.7307 279.08 89.6628 278.932 89.4312C278.784 89.1996 278.852 88.8922 279.084 88.7445L287.854 83.175C290.395 81.5578 292.152 78.9708 292.706 76.0231C292.757 75.7532 293.017 75.5752 293.289 75.6258Z" fill="#9A3B82"/>
<path fill-rule="evenodd" clip-rule="evenodd" d="M294.727 67.5691C294.998 67.6196 295.177 67.8794 295.126 68.1494C294.521 71.3682 292.603 74.1919 289.83 75.9564L281.06 81.5264C280.827 81.6741 280.519 81.6061 280.37 81.3745C280.222 81.143 280.29 80.8355 280.523 80.6878L289.292 75.1183C289.292 75.1183 289.292 75.1182 289.292 75.1181C289.292 75.1181 289.292 75.1181 289.292 75.1181C291.833 73.501 293.59 70.914 294.144 67.9665C294.195 67.6965 294.456 67.5186 294.727 67.5691Z" fill="#9A3B82"/>
<path fill-rule="evenodd" clip-rule="evenodd" d="M295.735 64.2905C295.882 64.5224 295.813 64.8297 295.581 64.9768L281.477 73.8885C281.244 74.0357 280.936 73.967 280.788 73.7351C280.64 73.5032 280.709 73.1959 280.942 73.0487L295.045 64.137C295.278 63.9899 295.587 64.0586 295.735 64.2905Z" fill="#9A3B82"/>
<path d="M283.169 93.4399L282.39 93.9372L278.514 96.4038L276.716 100.681C273.38 101.019 269.565 101.218 265.49 101.218C261.374 101.218 257.499 101.019 254.123 100.661V92.3856C257.499 91.9878 261.374 91.769 265.49 91.769C272.541 91.7491 278.854 92.4055 283.169 93.4399Z" fill="#9A3B82"/>
<path d="M150.266 80.1132C147.37 83.9922 136.583 93.1226 100.265 93.1226C53.5401 93.1226 83.445 78.7208 83.445 78.7208L103.262 45.7598L124.517 58.7492V69.1925C124.517 74.4639 128.812 78.7208 134.085 78.7208H135.464C140.418 78.7009 145.532 78.9197 150.266 80.1132Z" fill="#E57281"/>
<path d="M124.498 58.7287V61.3943L83.4258 78.7003L103.243 45.7393L124.498 58.7287Z" fill="#9A3B82"/>
<path d="M125.613 60.0209H130.128C134.283 60.0209 137.659 56.6591 137.659 52.5216V27.4775H110.711V45.1814C110.711 53.3769 117.383 60.0209 125.613 60.0209Z" fill="#E57281"/>
<path fill-rule="evenodd" clip-rule="evenodd" d="M133.456 48.8301L133.456 48.8297L133.456 48.829L133.455 48.8283C133.455 48.828 133.455 48.8281 133.455 48.8284C133.455 48.8284 133.455 48.8284 133.455 48.8284M133.455 48.8284C133.455 48.8285 133.455 48.8286 133.456 48.8288C133.456 48.83 133.458 48.8331 133.461 48.8378C133.467 48.8471 133.477 48.8631 133.492 48.8848C133.522 48.9282 133.57 48.9941 133.637 49.0751C133.771 49.2373 133.979 49.4581 134.27 49.6799C134.846 50.12 135.756 50.5719 137.08 50.5719C137.356 50.5719 137.579 50.7946 137.579 51.0692C137.579 51.3439 137.356 51.5665 137.08 51.5665C135.507 51.5665 134.389 51.0238 133.662 50.4694C133.301 50.1939 133.039 49.9173 132.865 49.7065C132.778 49.601 132.713 49.5115 132.668 49.4461C132.645 49.4134 132.628 49.3867 132.615 49.3669C132.609 49.357 132.604 49.3489 132.6 49.3426L132.596 49.3346L132.594 49.3317L132.593 49.3305L132.593 49.33C132.593 49.3297 132.592 49.3295 133.025 49.08" fill="#73325A"/>
<path d="M134.462 43.0534C134.991 43.0534 135.421 42.2251 135.421 41.2034C135.421 40.1818 134.991 39.3535 134.462 39.3535C133.932 39.3535 133.503 40.1818 133.503 41.2034C133.503 42.2251 133.932 43.0534 134.462 43.0534Z" fill="#73325A"/>
<path d="M115.846 30.0839C115.846 30.0839 138.08 43.4513 145.312 31.8145C151.664 21.6099 123.517 16.3584 113.689 16.3186C103.001 16.2788 88.838 20.9932 89.0777 36.6482C89.2775 49.5383 89.8168 68.3959 82.1458 65.1137C54.8579 53.457 30.6065 65.6309 30.5265 88.825C30.4466 112.019 57.4749 114.187 58.1541 108.2C58.8532 102.232 41.3738 103.605 43.731 119.101C46.0683 134.597 56.496 153.971 80.308 153.971C109.074 153.991 127.393 116.276 109.594 112.437C95.9496 109.493 123.497 135.71 131.668 108.458C140.457 79.1177 108.695 69.5099 107.916 51.7861C107.136 34.0623 115.846 30.0839 115.846 30.0839Z" fill="#FFCF2D"/>
<path fill-rule="evenodd" clip-rule="evenodd" d="M97.0142 20.1809C101.968 16.981 108.287 15.8014 113.691 15.8215C118.659 15.8416 128.208 17.1732 135.733 19.7854C139.486 21.0883 142.807 22.7331 144.79 24.7458C145.787 25.7586 146.471 26.8902 146.673 28.1417C146.877 29.4012 146.582 30.719 145.737 32.0764C143.832 35.141 140.935 36.5497 137.719 36.9471C134.521 37.3423 130.988 36.7428 127.727 35.7904C124.459 34.8362 121.427 33.5163 119.214 32.4376C118.107 31.8977 117.203 31.4171 116.574 31.0709C116.26 30.8978 116.015 30.7582 115.848 30.6616C115.843 30.6591 115.839 30.6567 115.835 30.6544C115.804 30.6722 115.77 30.6922 115.734 30.7145C115.515 30.8471 115.196 31.0589 114.813 31.3688C114.046 31.9883 113.018 33.0009 112.009 34.5584C109.993 37.6685 108.029 42.9885 108.415 51.7646C108.603 56.045 110.662 59.8695 113.589 63.691C115.051 65.6 116.719 67.4952 118.464 69.4389C118.761 69.7698 119.06 70.1021 119.36 70.4361C120.822 72.0598 122.319 73.7227 123.764 75.4476C127.249 79.6082 130.466 84.1707 132.249 89.5623C134.036 94.9657 134.372 101.172 132.147 108.601C130.076 115.507 126.743 119.129 123.041 120.624C121.085 121.414 119.059 121.595 117.115 121.379C117.198 125.426 115.644 130.242 112.842 134.907C106.829 144.917 94.9148 154.479 80.3081 154.469C68.2476 154.469 59.5528 149.555 53.5888 142.672C47.6369 135.803 44.4164 126.991 43.2375 119.175C42.6652 115.412 43.2303 112.421 44.4518 110.138C44.2586 110.068 44.0653 109.994 43.8722 109.918C36.8857 107.164 29.9867 100.662 30.0275 88.8235C30.0681 77.0323 36.2645 68.0179 45.9193 63.4513C55.5588 58.8921 68.5964 58.7847 82.3431 64.6569L82.3434 64.657C83.2226 65.0332 83.9273 65.0696 84.5039 64.8878C85.0845 64.7047 85.6093 64.2772 86.0801 63.5848C87.0356 62.1793 87.6706 59.8273 88.0687 56.8795C88.8145 51.359 88.6972 44.0495 88.5973 37.8233C88.591 37.4297 88.5847 37.0404 88.5788 36.6561C88.4561 28.6475 92.0317 23.3991 97.0142 20.1809ZM45.41 110.465C44.2522 112.549 43.6677 115.362 44.2252 119.026L44.2253 119.027C45.3836 126.707 48.5456 135.33 54.345 142.022C60.1321 148.701 68.5571 153.474 80.3084 153.474H80.3088C94.4682 153.484 106.097 144.198 111.985 134.396C114.771 129.757 116.237 125.058 116.111 121.232C114.751 120.984 113.445 120.554 112.246 120.017C110.653 119.303 109.234 118.394 108.107 117.451C106.987 116.514 106.127 115.519 105.689 114.624C105.47 114.176 105.338 113.716 105.366 113.28C105.395 112.822 105.602 112.417 106 112.134C106.377 111.866 106.885 111.736 107.482 111.71C108.085 111.684 108.822 111.762 109.7 111.951C112.02 112.452 113.786 113.514 115.013 115.01C116.21 116.471 116.867 118.312 117.058 120.371C118.915 120.601 120.833 120.442 122.666 119.702C126 118.356 129.175 115.036 131.189 108.316C133.359 101.075 133.021 95.0775 131.3 89.8734C129.575 84.6577 126.451 80.2091 122.997 76.0847C121.564 74.3745 120.081 72.7272 118.62 71.1036C118.318 70.7687 118.018 70.4348 117.719 70.1016C115.974 68.157 114.283 66.2367 112.795 64.2941C109.822 60.4124 107.618 56.3895 107.417 51.8081C107.024 42.8603 109.025 37.3292 111.169 34.0192C112.24 32.3666 113.341 31.2769 114.183 30.5965C114.604 30.2565 114.96 30.0191 115.214 29.8649C115.342 29.7877 115.444 29.7314 115.516 29.6934C115.552 29.6744 115.58 29.66 115.601 29.6499C115.611 29.6449 115.62 29.6409 115.626 29.6379L115.634 29.6342L115.638 29.6325C115.638 29.6323 115.638 29.6321 115.847 30.0841L115.638 29.6321L115.879 29.5224L116.105 29.6584L116.098 29.6695C116.105 29.6584 116.105 29.6584 116.105 29.6584L116.105 29.6587L116.108 29.6603L116.119 29.667C116.129 29.673 116.145 29.6821 116.165 29.6942C116.206 29.7184 116.268 29.7545 116.349 29.8012C116.511 29.8947 116.75 30.031 117.058 30.2006C117.674 30.54 118.563 31.0128 119.653 31.5443C121.836 32.6083 124.813 33.903 128.008 34.836C131.209 35.7709 134.591 36.3314 137.596 35.9601C140.582 35.591 143.176 34.3068 144.887 31.553L144.888 31.5527C145.631 30.3591 145.846 29.2806 145.687 28.2996C145.527 27.3106 144.978 26.3575 144.076 25.4422C142.261 23.5989 139.122 22.0151 135.404 20.7246C127.987 18.1499 118.548 16.8358 113.687 16.8161M116.037 120.205C115.831 118.408 115.237 116.857 114.239 115.639C113.173 114.339 111.617 113.382 109.488 112.923C108.661 112.745 108.014 112.682 107.525 112.703C107.031 112.725 106.74 112.83 106.58 112.943C106.441 113.042 106.374 113.166 106.363 113.344C106.35 113.544 106.41 113.826 106.587 114.188C106.94 114.91 107.686 115.8 108.749 116.689C109.806 117.573 111.147 118.434 112.656 119.11C113.72 119.587 114.86 119.969 116.037 120.205ZM45.41 110.465C48.3735 111.407 51.275 111.699 53.5923 111.455C54.9487 111.312 56.1357 110.983 57.0213 110.467C57.9095 109.95 58.542 109.211 58.6506 108.257C58.7528 107.383 58.5205 106.618 58.028 106.008C57.5433 105.408 56.8316 104.987 56.0134 104.732C54.3815 104.224 52.2183 104.339 50.1412 105.138C48.2092 105.881 46.3197 107.228 44.9708 109.267C44.7273 109.181 44.4836 109.089 44.2398 108.993C37.5624 106.361 30.9872 100.183 31.0263 88.8269C31.0656 77.4241 37.035 68.7545 46.3478 64.3497C55.676 59.9377 68.408 59.7865 81.9491 65.5709C82.9877 66.0152 83.9441 66.1075 84.8055 65.836C85.6629 65.5656 86.3529 64.9577 86.9072 64.1423C88.0018 62.5323 88.6578 59.9797 89.0587 57.0121C89.8149 51.4139 89.6962 44.0336 89.5964 37.8316C89.5899 37.4295 89.5835 37.0322 89.5775 36.6409C89.4604 28.9944 92.8466 24.0582 97.5577 21.0153C102.297 17.9542 108.404 16.7965 113.687 16.8161M45.9559 109.593C47.1665 107.868 48.8125 106.715 50.5011 106.066C52.4119 105.33 54.3401 105.253 55.7152 105.681C56.4006 105.895 56.9213 106.225 57.2496 106.631C57.5697 107.028 57.7307 107.525 57.6584 108.142L57.6582 108.144C57.5967 108.686 57.2361 109.19 56.5168 109.609C55.7946 110.03 54.7592 110.332 53.4874 110.466C51.3829 110.687 48.7151 110.437 45.9559 109.593Z" fill="white"/>
<path fill-rule="evenodd" clip-rule="evenodd" d="M130.19 41.3234H114.289V40.1299H130.19V41.3234Z" fill="#3FB1B5"/>
<path fill-rule="evenodd" clip-rule="evenodd" d="M135.085 36.1515C133.053 36.1515 131.169 38.32 131.169 41.3235C131.169 44.3269 133.053 46.4954 135.085 46.4954C137.117 46.4954 139 44.3269 139 41.3235C139 38.32 137.117 36.1515 135.085 36.1515ZM129.971 41.3235C129.971 37.955 132.13 34.958 135.085 34.958C138.04 34.958 140.199 37.955 140.199 41.3235C140.199 44.6919 138.04 47.6889 135.085 47.6889C132.13 47.6889 129.971 44.6919 129.971 41.3235Z" fill="#3FB1B5"/>
<path fill-rule="evenodd" clip-rule="evenodd" d="M110.433 12.9172C108.228 12.9172 106.457 14.6972 106.457 16.8757V33.6247H105.259V16.8757C105.259 14.0414 107.563 11.7236 110.433 11.7236H115.427C118.273 11.7236 120.601 14.0181 120.601 16.8757H119.402C119.402 14.6807 117.615 12.9172 115.427 12.9172H110.433Z" fill="#66B0F0"/>
<path d="M110.673 52.0649H101.064C98.607 52.0649 96.6094 50.0757 96.6094 47.629V38.0609C96.6094 35.6142 98.607 33.625 101.064 33.625H110.673C113.13 33.625 115.128 35.6142 115.128 38.0609V47.629C115.108 50.0757 113.13 52.0649 110.673 52.0649Z" fill="white"/>
<path fill-rule="evenodd" clip-rule="evenodd" d="M101.064 34.2218C98.9377 34.2218 97.2084 35.9439 97.2084 38.061V47.629C97.2084 49.7462 98.9377 51.4682 101.064 51.4682H110.673C112.793 51.4682 114.509 49.7508 114.528 47.6265V38.061C114.528 35.9439 112.799 34.2218 110.673 34.2218H101.064ZM96.0098 38.061C96.0098 35.2847 98.2757 33.0283 101.064 33.0283H110.673C113.461 33.0283 115.727 35.2847 115.727 38.061V47.6315L115.727 47.6339C115.704 50.402 113.465 52.6617 110.673 52.6617H101.064C98.2757 52.6617 96.0098 50.4053 96.0098 47.629V38.061Z" fill="#66B0F0"/>
<path d="M108.176 48.9022H103.481C101.464 48.9022 99.8057 47.271 99.8057 45.242V40.5674C99.8057 38.5583 101.444 36.9072 103.481 36.9072H108.176C110.193 36.9072 111.852 38.5384 111.852 40.5674V45.242C111.852 47.271 110.213 48.9022 108.176 48.9022Z" fill="white"/>
<path fill-rule="evenodd" clip-rule="evenodd" d="M103.482 37.5041C101.778 37.5041 100.406 38.8858 100.406 40.5674V45.2421C100.406 46.9394 101.793 48.3054 103.482 48.3054H108.177C109.883 48.3054 111.253 46.9415 111.253 45.2421V40.5674C111.253 38.8701 109.865 37.5041 108.177 37.5041H103.482ZM99.207 40.5674C99.207 38.2309 101.111 36.3105 103.482 36.3105H108.177C110.523 36.3105 112.452 38.2068 112.452 40.5674V45.2421C112.452 47.6006 110.545 49.499 108.177 49.499H103.482C101.136 49.499 99.207 47.6027 99.207 45.2421V40.5674Z" fill="#66B0F0"/>
<path fill-rule="evenodd" clip-rule="evenodd" d="M101.204 48.0863L109.554 37.0264L110.512 37.7436L102.162 48.8035L101.204 48.0863Z" fill="#66B0F0"/>
<path fill-rule="evenodd" clip-rule="evenodd" d="M99.5674 46.1946L106.799 36.6465L107.756 37.3651L100.524 46.9132L99.5674 46.1946Z" fill="#66B0F0"/>
<path fill-rule="evenodd" clip-rule="evenodd" d="M103.94 48.5423L111.172 38.9941L112.129 39.7128L104.897 49.261L103.94 48.5423Z" fill="#66B0F0"/>
<path fill-rule="evenodd" clip-rule="evenodd" d="M106.839 48.5432L111.374 42.5557L112.331 43.2743L107.796 49.2618L106.839 48.5432Z" fill="#66B0F0"/>
<path fill-rule="evenodd" clip-rule="evenodd" d="M99.3477 42.5942L103.862 36.6465L104.818 37.3662L100.304 43.3139L99.3477 42.5942Z" fill="#66B0F0"/>
<path fill-rule="evenodd" clip-rule="evenodd" d="M98.1471 325.803V314.843H99.3457V325.803C99.3457 331.424 94.7625 335.988 89.1177 335.988H64.4268V334.794H89.1177C94.1005 334.794 98.1471 330.765 98.1471 325.803Z" fill="#66B0F0"/>
<path fill-rule="evenodd" clip-rule="evenodd" d="M107.358 415.517V314.963H108.557V415.517H107.358Z" fill="#66B0F0"/>
<path fill-rule="evenodd" clip-rule="evenodd" d="M102.903 416.113C81.2206 416.113 63.849 430.395 63.849 447.762H62.6504C62.6504 429.521 80.797 414.92 102.903 414.92H112.851C134.957 414.92 153.104 429.521 153.104 447.762H151.905C151.905 430.395 134.534 416.113 112.851 416.113H102.903Z" fill="#66B0F0"/>
<path d="M204.022 316.494H58.9922C51.7208 316.494 45.8477 310.626 45.8477 303.405H207.458L204.022 316.494Z" fill="#FFCF2D"/>
<path d="M62.3705 469.085C68.2841 469.085 73.078 464.311 73.078 458.423C73.078 452.534 68.2841 447.761 62.3705 447.761C56.457 447.761 51.6631 452.534 51.6631 458.423C51.6631 464.311 56.457 469.085 62.3705 469.085Z" fill="#FFCF2D"/>
<path d="M56.9155 338.117H78.4103C80.1682 338.117 81.5865 336.705 81.5865 334.954V334.715C81.5865 332.965 80.1682 331.553 78.4103 331.553H56.9155C55.1576 331.553 53.7393 332.965 53.7393 334.715V334.954C53.7393 336.705 55.1576 338.117 56.9155 338.117Z" fill="#FFCF2D"/>
<path fill-rule="evenodd" clip-rule="evenodd" d="M12.044 211.286C9.38832 203.857 14.9108 196.048 22.8366 196.048H98.4877C105.853 196.048 112.411 200.663 114.893 207.563L114.894 207.564L149.599 304.4H45.4272L12.044 211.286ZM13.1731 210.886C10.7952 204.232 15.7404 197.241 22.8366 197.241H98.4877C105.345 197.241 111.453 201.538 113.765 207.966L147.898 303.206H46.272L13.1732 210.886C13.1732 210.886 13.1731 210.886 13.1731 210.886Z" fill="#FFCF2D"/>
<path fill-rule="evenodd" clip-rule="evenodd" d="M15.2461 199.608H91.836C98.9618 199.608 105.3 204.064 107.702 210.746L107.703 210.746L141.249 304.4H50.9441V303.206H139.549L106.574 211.148C104.342 204.94 98.4541 200.802 91.836 200.802H15.2461V199.608Z" fill="#FFCF2D"/>
<path d="M152.325 469.085C158.238 469.085 163.032 464.311 163.032 458.423C163.032 452.534 158.238 447.761 152.325 447.761C146.411 447.761 141.617 452.534 141.617 458.423C141.617 464.311 146.411 469.085 152.325 469.085Z" fill="#FFCF2D"/>
</svg>
